<svg xmlns="http://www.w3.org/2000/svg" viewBox="0 0 1200 630">
  <rect width="1200" height="630" fill="#f3f5f7"/>
  <rect x="820" width="380" height="630" fill="#2456d8"/>
  <text x="72" y="78" fill="#2456d8" font-family="IBM Plex Mono, monospace" font-size="18" letter-spacing="2">PRODUCT STRATEGY / RETAIL</text>
  <text x="72" y="160" fill="#15191f" font-family="Manrope, sans-serif" font-size="52" font-weight="650">Designing a digital BAU</text>
  <text x="72" y="224" fill="#15191f" font-family="Manrope, sans-serif" font-size="52" font-weight="650">operating model</text>
  <text x="72" y="274" fill="#5d6672" font-family="Manrope, sans-serif" font-size="25">Reliable delivery today. Strategic progress tomorrow.</text>
  <line x1="72" y1="330" x2="748" y2="330" stroke="#d5dbe2" stroke-width="2"/>
  <g transform="translate(72 374)">
    <text x="0" y="0" fill="#15191f" font-family="IBM Plex Mono, monospace" font-size="30">4</text>
    <text x="0" y="30" fill="#5d6672" font-family="Manrope, sans-serif" font-size="16">operating principles</text>
    <text x="238" y="0" fill="#15191f" font-family="IBM Plex Mono, monospace" font-size="30">3</text>
    <text x="238" y="30" fill="#5d6672" font-family="Manrope, sans-serif" font-size="16">stakeholder groups</text>
    <text x="476" y="0" fill="#15191f" font-family="IBM Plex Mono, monospace" font-size="30">90-day</text>
    <text x="476" y="30" fill="#5d6672" font-family="Manrope, sans-serif" font-size="16">adoption plan</text>
  </g>
  <text x="72" y="560" fill="#7b8490" font-family="IBM Plex Mono, monospace" font-size="18">ABHISHEK KUMAR / PRODUCT CASE STUDY</text>
  <g transform="translate(982 92) scale(3.1)" fill="#ffffff">
    <path d="M17.803 8.818 26.818 0l.043 8.773-8.835 8.965 8.641-.012 9.024 9.017h-8.806l-9.037-8.855c-2.974 2.901-5.937 5.999-8.955 8.855-2.899-.057-5.81.066-8.893 0 .037-.281 8.908-8.99 8.908-8.99l8.789-.003L8.864 8.803S8.858 2.489 8.792.119c-.002-.051.059-.09.059-.09l1.176 1.095 7.776 7.694Z"/>
  </g>
  <text x="1010" y="335" fill="#ffffff" font-family="Manrope, sans-serif" font-size="29" font-weight="650" text-anchor="middle">Run + change</text>
  <text x="1010" y="378" fill="#dfe7fb" font-family="Manrope, sans-serif" font-size="20" text-anchor="middle">One measurable</text>
  <text x="1010" y="408" fill="#dfe7fb" font-family="Manrope, sans-serif" font-size="20" text-anchor="middle">product system</text>
</svg>
