<svg xmlns="http://www.w3.org/2000/svg" viewBox="0 0 1200 630">
  <rect width="1200" height="630" fill="#f3f5f7"/>
  <g transform="translate(1068 54) scale(1.7)" fill="#2456d8"><path d="M17.803 8.818 26.818 0l.043 8.773-8.835 8.965 8.641-.012 9.024 9.017h-8.806l-9.037-8.855c-2.974 2.901-5.937 5.999-8.955 8.855-2.899-.057-5.81.066-8.893 0 .037-.281 8.908-8.99 8.908-8.99l8.789-.003L8.864 8.803S8.858 2.489 8.792.119c-.002-.051.059-.09.059-.09l1.176 1.095 7.776 7.694Z"/></g>
  <text x="72" y="78" fill="#2456d8" font-family="IBM Plex Mono, monospace" font-size="18" letter-spacing="2">B2B SAAS / PLATFORM ADOPTION</text>
  <text x="72" y="158" fill="#15191f" font-family="Manrope, sans-serif" font-size="50" font-weight="650">Turning passive pilots into</text>
  <text x="72" y="218" fill="#15191f" font-family="Manrope, sans-serif" font-size="50" font-weight="650">active energy management</text>
  <g transform="translate(72 316)">
    <rect width="310" height="138" rx="8" fill="#ffffff" stroke="#d5dbe2"/>
    <text x="24" y="46" fill="#7b8490" font-family="IBM Plex Mono, monospace" font-size="16">EVIDENCE</text>
    <text x="24" y="88" fill="#15191f" font-family="Manrope, sans-serif" font-size="25">Amplitude behavior</text>
    <path d="M330 69H380" stroke="#2456d8" stroke-width="4"/>
    <rect x="400" width="310" height="138" rx="8" fill="#ffffff" stroke="#d5dbe2"/>
    <text x="424" y="46" fill="#7b8490" font-family="IBM Plex Mono, monospace" font-size="16">PRIORITY</text>
    <text x="424" y="88" fill="#15191f" font-family="Manrope, sans-serif" font-size="25">Depth of use</text>
    <path d="M730 69H780" stroke="#2456d8" stroke-width="4"/>
    <rect x="800" width="310" height="138" rx="8" fill="#dfe7fb" stroke="#2456d8"/>
    <text x="824" y="46" fill="#1942ad" font-family="IBM Plex Mono, monospace" font-size="16">OUTCOME</text>
    <text x="824" y="91" fill="#15191f" font-family="IBM Plex Mono, monospace" font-size="34">84% sessions</text>
  </g>
  <text x="72" y="520" fill="#15191f" font-family="IBM Plex Mono, monospace" font-size="30">100% logo retention</text>
  <text x="472" y="520" fill="#15191f" font-family="IBM Plex Mono, monospace" font-size="30">7 completed sprints</text>
  <text x="72" y="568" fill="#7b8490" font-family="IBM Plex Mono, monospace" font-size="18">ABHISHEK KUMAR / PRODUCT CASE STUDY</text>
</svg>
