<svg xmlns="http://www.w3.org/2000/svg" viewBox="0 0 1200 630">
  <rect width="1200" height="630" fill="#f3f5f7"/>
  <rect x="0" y="0" width="18" height="630" fill="#2456d8"/>
  <g transform="translate(1068 54) scale(1.7)" fill="#2456d8"><path d="M17.803 8.818 26.818 0l.043 8.773-8.835 8.965 8.641-.012 9.024 9.017h-8.806l-9.037-8.855c-2.974 2.901-5.937 5.999-8.955 8.855-2.899-.057-5.81.066-8.893 0 .037-.281 8.908-8.99 8.908-8.99l8.789-.003L8.864 8.803S8.858 2.489 8.792.119c-.002-.051.059-.09.059-.09l1.176 1.095 7.776 7.694Z"/></g>
  <text x="72" y="78" fill="#2456d8" font-family="IBM Plex Mono, monospace" font-size="18" letter-spacing="2">0-TO-1 DATA PRODUCT</text>
  <text x="72" y="157" fill="#15191f" font-family="Manrope, sans-serif" font-size="52" font-weight="650">Making visa sponsorship</text>
  <text x="72" y="218" fill="#15191f" font-family="Manrope, sans-serif" font-size="52" font-weight="650">searchable in Ireland</text>
  <text x="72" y="280" fill="#5d6672" font-family="Manrope, sans-serif" font-size="24">VisaJobs Ireland / Founder and Product Manager</text>
  <g transform="translate(72 354)">
    <rect width="232" height="118" rx="8" fill="#ffffff" stroke="#d5dbe2"/>
    <text x="22" y="54" fill="#15191f" font-family="IBM Plex Mono, monospace" font-size="34">3,500+</text>
    <text x="22" y="88" fill="#5d6672" font-family="Manrope, sans-serif" font-size="18">candidates</text>
    <rect x="250" width="232" height="118" rx="8" fill="#ffffff" stroke="#d5dbe2"/>
    <text x="272" y="54" fill="#15191f" font-family="IBM Plex Mono, monospace" font-size="34">204,612</text>
    <text x="272" y="88" fill="#5d6672" font-family="Manrope, sans-serif" font-size="18">permit records</text>
    <rect x="500" width="232" height="118" rx="8" fill="#ffffff" stroke="#d5dbe2"/>
    <text x="522" y="54" fill="#15191f" font-family="IBM Plex Mono, monospace" font-size="34">22,800+</text>
    <text x="522" y="88" fill="#5d6672" font-family="Manrope, sans-serif" font-size="18">employers</text>
    <rect x="750" width="232" height="118" rx="8" fill="#dfe7fb" stroke="#2456d8"/>
    <text x="772" y="54" fill="#15191f" font-family="IBM Plex Mono, monospace" font-size="34">4,400+</text>
    <text x="772" y="88" fill="#5d6672" font-family="Manrope, sans-serif" font-size="18">live jobs</text>
  </g>
  <text x="72" y="564" fill="#7b8490" font-family="IBM Plex Mono, monospace" font-size="18">ABHISHEK KUMAR / PRODUCT CASE STUDY</text>
</svg>
